
        <svg xmlns="http://www.w3.org/2000/svg" xmlns:xlink="http://www.w3.org/1999/xlink" version="1.1" width="3159.900335740382" height="2738.0017288270383" viewBox="0 0 3159.900335740382 2738.0017288270383">
			
			<g transform="scale(7.995016787019108) translate(10, 10)">
				<defs id="SvgjsDefs1638"/><g id="SvgjsG1639" featureKey="nYIUkx-0" transform="matrix(1.5296417630094155,0,0,1.5296417630094155,-2.473153047977167,87.22864754213266)" fill="#fff"><g xmlns="http://www.w3.org/2000/svg"><path d="M38.4296875,28.9643555c2.7109375,0,4.9169922-2.199707,4.9169922-4.9042969s-2.2060547-4.9042969-4.9169922-4.9042969   c-2.7265625,0-4.9443359,2.199707-4.9443359,4.9042969S35.703125,28.9643555,38.4296875,28.9643555z M38.4296875,20.7553711   c1.7978516,0,3.3173828,1.5136719,3.3173828,3.3046875c0,1.8222656-1.4882813,3.3046875-3.3173828,3.3046875   c-1.84375,0-3.3447266-1.4824219-3.3447266-3.3046875S36.5859375,20.7553711,38.4296875,20.7553711z"/><path d="M51.5996094,28.9643555c2.7265625,0,4.9443359-2.199707,4.9443359-4.9042969s-2.2177734-4.9042969-4.9443359-4.9042969   s-4.9443359,2.199707-4.9443359,4.9042969S48.8730469,28.9643555,51.5996094,28.9643555z M51.5996094,20.7553711   c1.84375,0,3.3447266,1.4824219,3.3447266,3.3046875s-1.5009766,3.3046875-3.3447266,3.3046875   s-3.3447266-1.4824219-3.3447266-3.3046875S49.7558594,20.7553711,51.5996094,20.7553711z"/><path d="M77.0488281,70.2950439V42.6108398c0-3.9022827-3.0474854-7.1028442-6.897522-7.3875122   c-0.8265381-1.9910278-2.6865234-3.4516602-4.9144897-3.7286987c-0.2944946-9.1774902-6.8381348-16.8043823-15.5600586-18.8533936   c-0.1116333-0.0591431-0.2330933-0.1011963-0.3681641-0.1011963c-0.0056763,0-0.010376,0.0031128-0.0159912,0.0032349   c-1.3848267-0.2967529-2.8183594-0.4622192-4.291626-0.4622192c-1.4691162,0-2.8988037,0.1641235-4.2799683,0.4592285   c-0.0004272,0-0.0008545-0.0002441-0.0012817-0.0002441c-0.1281128,0-0.2446289,0.0367432-0.3519897,0.090332   c-8.7432861,2.0340576-15.3076172,9.6716919-15.6026001,18.8641968c-2.2290649,0.2769775-4.0895996,1.7382813-4.9158936,3.7300415   c-3.8520508,0.2973022-6.8961182,3.4928589-6.8961182,7.3862305v27.6872559   c-2.7896118,0.9716187-4.7988281,3.6107178-4.7988281,6.7145996v0.1347656c0,0.4418945,0.3583984,0.7998047,0.7998047,0.7998047   h3.6533203c0.4414063,0,0.7998047-0.4116211,0.7998047-0.8535156c0-1.0478516,0.8525391-1.9008789,1.8994141-1.9008789   c1.0800781,0,1.9267578,0.8349609,1.9267578,1.9545898c0,0.4418945,0.3583984,0.7998047,0.7998047,0.7998047H21.6875   c0.4414063,0,0.7998047-0.3579102,0.7998047-0.7998047v-0.1347656c0-3.0968018-2.0081177-5.7307129-4.7988281-6.7077026V42.6108398   c0-1.3214722,0.9441528-2.427063,2.1951294-2.6818237c0.8391724,1.9390869,2.6658325,3.3571167,4.8488159,3.6403198v7.4663086   c0,8.5200195,5.4031982,16.0316162,13.4970703,18.8936768v0.2786865v2.9160156   c0,0.2270508,0.0029297,0.4541016,0.0351563,0.6816406c0.0004272,0.0029297,0.0022583,0.0053101,0.0027466,0.0082397   c0.3364868,2.3572388,2.4075928,4.1333618,4.8244019,4.1333618h3.8173828c2.4199219,0,4.4960938-1.7817383,4.828125-4.1445313   c0.0004883-0.0036011-0.0012207-0.007019-0.0007935-0.0106201c0.0006104-0.0040283,0.0031738-0.0073242,0.0037231-0.0113525   c0.03125-0.2192383,0.0585938-0.4379883,0.0585938-0.6567383v-2.9160156v-0.2788086   c8.0782471-2.8577271,13.4707031-10.3691406,13.4707031-18.8935547v-7.4663696   c2.1827393-0.2833252,4.0094604-1.7017212,4.8483887-3.6413574c1.2475586,0.2513428,2.2219238,1.37677,2.2219238,2.6829224   v27.6842041c-2.8049927,0.9692383-4.8261719,3.6107178-4.8261719,6.7176514v0.1347656   c0,0.4418945,0.3583984,0.7998047,0.7998047,0.7998047h3.6542969c0.4414063,0,0.7998047-0.4116211,0.7998047-0.8535156   c0-1.0478516,0.8642578-1.9008789,1.9267578-1.9008789s1.9267578,0.8530273,1.9267578,1.9545898   c0,0.4418945,0.3583984,0.7998047,0.7998047,0.7998047h3.6542969c0.4414063,0,0.7998047-0.3579102,0.7998047-0.7998047v-0.1347656   C81.875,73.9057617,79.8538208,71.2642822,77.0488281,70.2950439z M48.5087891,14.0184937v0.2124634   c0,1.8964844-1.5732422,3.4394531-3.5078125,3.4394531c-1.9199219,0-3.4814453-1.5429688-3.4814453-3.4394531v-0.2164917   c1.1293945-0.2116699,2.2907104-0.3338013,3.4814453-0.3338013C46.2008667,13.6806641,47.3712158,13.8036499,48.5087891,14.0184937   z M39.9360352,14.3892822c0.0866089,2.7041626,2.3178711,4.8807373,5.0649414,4.8807373   c2.7591553,0,5.000061-2.1732788,5.0905151-4.8742065c7.5738525,2.1275024,13.1846924,8.8635254,13.5374146,16.9381714H26.3730469   C26.7261963,23.2503662,32.3493042,16.5088501,39.9360352,14.3892822z M39.8291016,36.4169922h10.3701172v1.8837891H39.8291016   V36.4169922z M50.1992188,34.8173828H39.8291016v-1.8837891h10.3701172V34.8173828z M20.8476563,76.3476563h-2.0947266   c-0.3457031-1.5732422-1.7597656-2.7543945-3.4462891-2.7543945c-1.6611328,0-3.0556641,1.1640625-3.4111328,2.7543945H9.7939453   c0.3320313-2.730957,2.6777344-4.8540039,5.5126953-4.8540039C18.15625,71.4936523,20.5136719,73.6166992,20.8476563,76.3476563z    M16.0888672,42.6108398v27.3274536c-0.2572021-0.027771-0.5177002-0.0442505-0.7822266-0.0442505   c-0.2546997,0-0.5059814,0.0144043-0.7539063,0.0404053V42.6108398c0-2.8657227,2.1088867-5.2479858,4.8706665-5.7238159   c-0.0227661,0.2128296-0.0357056,0.4284668-0.0357056,0.6471558c0,0.2926636,0.0280762,0.5782471,0.0684814,0.8599854   C17.5315552,38.8392334,16.0888672,40.5559692,16.0888672,42.6108398z M20.9873047,37.5341797   c0-2.2075195,1.6191406-4.0483398,3.7451172-4.4228516v8.8461914   C22.6064453,41.5825195,20.9873047,39.7416992,20.9873047,37.5341797z M50.1992188,67.5244141v1.8461914v0.0375977H39.8291016   v-0.0375977v-1.8461914H50.1992188z M39.8291016,71.0078125h10.3701172v1.8837891H39.8291016V71.0078125z M40.1481934,65.9248047   c0.522644-1.0933838,1.6409302-1.8569336,2.9436035-1.8569336h3.8173828c1.3139648,0,2.4415283,0.7635498,2.9683838,1.8569336   H40.1481934z M46.9091797,76.3476563h-3.8173828c-1.2949219,0-2.4423828-0.753418-2.96875-1.8564453h9.7548828   C49.3515625,75.5942383,48.2041016,76.3476563,46.9091797,76.3476563z M51.7988281,68.2387695v-0.9472656   c0-0.2192383-0.0283203-0.4389648-0.0615234-0.6772461c-0.001709-0.0124512-0.0091553-0.0223389-0.0114136-0.0346069   c-0.3522949-2.3206177-2.3675537-4.1113892-4.8167114-4.1113892h-3.8173828c-2.3960571,0-4.3800049,1.730957-4.7780151,3.9961548   c-0.0170898,0.0483398-0.0842896,0.6000366-0.0842896,0.8270874v0.9477539   c-3.593689-1.3905029-6.5758057-3.7922363-8.65625-6.8063965c0.6549072-7.9115601,7.3843384-14.079834,15.4277344-14.079834   c8.0733032,0,14.8056641,6.1745605,15.4299316,14.0913696C58.3555298,64.4545898,55.381897,66.8517456,51.7988281,68.2387695z    M61.7216797,59.2556152C60.1229248,51.5266724,53.192627,45.753418,45.0009766,45.753418   c-8.1665039,0-15.0959473,5.7730103-16.7145996,13.5019531c-1.2565918-2.4962769-1.9543457-5.2930298-1.9543457-8.2197266   v-5.1499023h9.4609375v-1.5996094h-9.4609375v-1.4589844v-0.7172852h6.6181641v-1.5996094h-6.6181641v-2.1762695h4.28125V36.734375   h-4.28125v-3.8007813h11.8974609v2.6835938v2.9165039c0,0.2270508,0.0029297,0.4541016,0.0351563,0.6816406   c0.0576172,0.3930664,0.3945313,0.6850586,0.7919922,0.6850586h11.8886719c0.3994141,0,0.7402344-0.3134766,0.7949219-0.7084961   c0.0302734-0.2192383,0.0585938-0.4389648,0.0585938-0.6582031v-2.9165039v-2.6835938h11.8710938v1.5913086h-9.0625v1.5996094   h9.0625v2.1762695h-6.2197266v1.5996094h6.2197266v2.1762695h-3.8837891v1.5996094h3.8837891v7.359375   C63.6699219,53.9629517,62.9744263,56.7597046,61.7216797,59.2556152z M65.2695313,41.9575195v-8.8461914   c2.125,0.375,3.7441406,2.215332,3.7441406,4.4228516S67.3945313,41.5825195,65.2695313,41.9575195z M70.5460815,38.3858032   c0.0396118-0.2790527,0.0671997-0.5618896,0.0671997-0.8516235c0-0.2199707-0.0132446-0.4368286-0.0362549-0.6508179   c2.7610474,0.4660034,4.8721924,2.8533936,4.8721924,5.727478v27.3233032   c-0.24823-0.0258179-0.4998779-0.0401001-0.7548828-0.0401001s-0.5066528,0.0142822-0.7548828,0.0401001V42.6108398   C73.9394531,40.5460815,72.4844971,38.8206177,70.5460815,38.3858032z M78.140625,76.3476563   c-0.3457031-1.5732422-1.7597656-2.7543945-3.4462891-2.7543945c-1.6738281,0-3.0800781,1.1640625-3.4384766,2.7543945h-2.1025391   c0.3339844-2.730957,2.6914063-4.8540039,5.5410156-4.8540039s5.2070313,2.1230469,5.5410156,4.8540039H78.140625z"/></g></g><g id="SvgjsG1640" featureKey="PXhRQw-0" transform="matrix(20.45118326724776,0,0,20.45118326724776,125.72928223814405,-107.48150796986268)" fill="#fff"><path d="M8.1 20 l-2.96 0 l0 -5.8 l-1.58 0 l0 5.8 l-2.96 0 l0 -14.5 l2.96 0 l0 6.2 l1.58 0 l0 -6.2 l2.96 0 l0 14.5 z M9.3 5.5 l2.9 0 l0 14.5 l-2.9 0 l0 -14.5 z"/></g><g id="SvgjsG1641" featureKey="mlRtrp-0" transform="matrix(0.7409897161442779,0,0,0.7409897161442779,140.44451420357225,307.3759671155774)" fill="#fff"><path d="M14.941 20 l0 -5.5957 l-9.2188 0 l0 5.5957 l-3.623 0 l0 -13.418 l3.623 0 l0 4.8828 l9.2188 0 l0 -4.8828 l3.623 0 l0 13.418 l-3.623 0 z M50.297015625 17.4609 l-7.4805 0 l-1.2598 2.5391 l-4.043 0 l7.0215 -13.418 l4.043 0 l7.0215 13.418 l-4.043 0 z M44.115215625 14.8437 l4.9023 0 l-2.4414 -4.9414 z M89.33421875 19.08203 c-0.46875 0.19531 -0.94076 0.37102 -1.416 0.52727 s-0.9668 0.29134 -1.4746 0.40527 s-1.0433 0.2002 -1.6064 0.25879 s-1.167 0.087891 -1.8115 0.087891 c-1.3672 0 -2.6253 -0.14648 -3.7744 -0.43945 s-2.1387 -0.73405 -2.9688 -1.3232 s-1.4763 -1.3249 -1.9385 -2.207 s-0.69336 -1.9124 -0.69336 -3.0908 s0.23112 -2.2087 0.69336 -3.0908 s1.1084 -1.6179 1.9385 -2.207 s1.8196 -1.0303 2.9688 -1.3232 s2.4072 -0.43945 3.7744 -0.43945 c0.64453 0 1.2483 0.029297 1.8115 0.087891 s1.0986 0.14485 1.6064 0.25879 s0.99932 0.24902 1.4746 0.40527 s0.94727 0.33203 1.416 0.52734 l0 3.2617 c-0.37109 -0.20183 -0.76172 -0.40202 -1.1719 -0.60059 s-0.86263 -0.3776 -1.3574 -0.5371 s-1.0384 -0.28971 -1.6309 -0.39062 s-1.2598 -0.15137 -2.002 -0.15137 c-1.1394 0 -2.085 0.11719 -2.8369 0.35156 s-1.3525 0.54688 -1.8018 0.9375 s-0.76497 0.83821 -0.94727 1.3428 s-0.27344 1.0271 -0.27344 1.5674 c0 0.35808 0.039063 0.71127 0.11719 1.0596 s0.20833 0.67709 0.39063 0.98633 s0.41992 0.59408 0.71289 0.8545 s0.65755 0.48503 1.0938 0.67383 s0.94564 0.33691 1.5283 0.44434 s1.2549 0.16113 2.0166 0.16113 c0.74219 0 1.4095 -0.047197 2.002 -0.1416 s1.136 -0.21973 1.6309 -0.37598 s0.94727 -0.33366 1.3574 -0.53223 s0.80078 -0.40201 1.1719 -0.61034 l0 3.2617 l0 0 z M113.107434375 11.6992 l7.4219 -5.1172 l4.8535 0 l-9.0332 6.4355 l9.6387 6.9824 l-5.2832 0 l-7.5977 -5.5762 l0 5.5762 l-3.6426 0 l0 -13.418 l3.6426 0 l0 5.1172 z M169.11131875 20 l0 -13.418 l3.623 0 l0 13.418 l-3.623 0 z M210.1209375 13.2812 c0 0.85938 -0.094385 1.6228 -0.28318 2.29 s-0.4541 1.2483 -0.7959 1.7432 s-0.75195 0.91472 -1.2305 1.2598 s-1.0107 0.62174 -1.5967 0.83007 s-1.2175 0.3597 -1.8945 0.4541 s-1.3835 0.1416 -2.1191 0.1416 l-8.5156 0 l0 -13.418 l8.4961 0 c0.73567 0 1.4421 0.047197 2.1191 0.1416 s1.3103 0.24577 1.8994 0.4541 s1.1247 0.4834 1.6064 0.8252 s0.89355 0.76172 1.2354 1.2598 s0.6071 1.0791 0.7959 1.7432 s0.2832 1.4226 0.2832 2.2754 z M206.4689375 13.2812 c0 -0.64453 -0.083008 -1.2044 -0.24902 -1.6797 s-0.43294 -0.86752 -0.80078 -1.1768 s-0.84799 -0.54037 -1.4404 -0.69337 s-1.3151 -0.22949 -2.168 -0.22949 l-4.502 0 l0 7.5781 l4.502 0 c0.85286 0 1.5755 -0.076494 2.168 -0.22949 s1.0726 -0.38737 1.4404 -0.70313 s0.63477 -0.71126 0.80078 -1.1865 s0.24902 -1.0352 0.24902 -1.6797 z M230.17381875 20 l0 -13.418 l13.584 0 l0 2.8613 l-9.8633 0 l0 2.2168 l9.3555 0 l0 2.8613 l-9.3555 0 l0 2.6172 l10 0 l0 2.8613 l-13.721 0 z M274.92396875 17.4609 l-7.4805 0 l-1.2598 2.5391 l-4.043 0 l7.0215 -13.418 l4.043 0 l7.0215 13.418 l-4.043 0 z M268.74216875 14.8437 l4.9023 0 l-2.4414 -4.9414 z M311.539171875 10.3613 c-0.25391 -0.1237 -0.58916 -0.26372 -1.0059 -0.41997 s-0.88867 -0.30437 -1.416 -0.44434 s-1.1003 -0.25716 -1.7188 -0.35156 s-1.2532 -0.1416 -1.9043 -0.1416 c-0.52083 0 -0.96517 0.016279 -1.333 0.048828 s-0.67709 0.074863 -0.92774 0.12694 s-0.44922 0.1123 -0.5957 0.18066 s-0.25879 0.13835 -0.33691 0.20996 s-0.12858 0.14322 -0.15137 0.21483 s-0.03418 0.13672 -0.03418 0.19531 c0 0.19531 0.097656 0.36621 0.29297 0.5127 s0.46224 0.27669 0.80078 0.39063 s0.73242 0.22136 1.1816 0.32227 s0.9261 0.20508 1.4307 0.3125 s1.0254 0.22461 1.5625 0.35156 s1.0579 0.27507 1.5625 0.44434 s0.98145 0.36621 1.4307 0.59082 s0.8431 0.48665 1.1816 0.78613 s0.60547 0.64453 0.80078 1.0352 s0.29297 0.83659 0.29297 1.3379 c0 0.64453 -0.11394 1.1979 -0.3418 1.6602 s-0.53223 0.85286 -0.91309 1.1719 s-0.82194 0.57455 -1.3232 0.76661 s-1.0271 0.34018 -1.5771 0.44435 s-1.1067 0.17253 -1.6699 0.20508 s-1.0986 0.048828 -1.6064 0.048828 c-1.3281 0 -2.5569 -0.10905 -3.6865 -0.32715 s-2.1272 -0.4899 -2.9932 -0.81542 l0 -3.2031 c0.89192 0.49479 1.9092 0.88217 3.0518 1.1621 s2.3649 0.41992 3.667 0.41992 c0.76823 0 1.3948 -0.040693 1.8799 -0.12207 s0.86426 -0.18555 1.1377 -0.3125 s0.45898 -0.2653 0.55664 -0.41504 s0.14648 -0.29297 0.14648 -0.42969 c0 -0.21484 -0.097656 -0.40202 -0.29297 -0.56152 s-0.46224 -0.29947 -0.80078 -0.41991 s-0.73242 -0.23111 -1.1816 -0.33202 s-0.9261 -0.20182 -1.4307 -0.30272 s-1.0237 -0.20996 -1.5576 -0.32715 s-1.053 -0.25554 -1.5576 -0.41504 s-0.98145 -0.34505 -1.4307 -0.55664 s-0.8431 -0.46225 -1.1816 -0.75196 s-0.60547 -0.625 -0.80078 -1.0059 s-0.29297 -0.82194 -0.29297 -1.3232 c0 -0.59245 0.10417 -1.1035 0.3125 -1.5332 s0.4899 -0.7959 0.84472 -1.0986 s0.76497 -0.54851 1.2305 -0.7373 s0.95541 -0.33528 1.4697 -0.43945 s1.0352 -0.17578 1.5625 -0.21484 s1.0286 -0.058594 1.5039 -0.058594 c0.52083 0 1.0563 0.026045 1.6064 0.078125 s1.0921 0.12532 1.626 0.21973 s1.0498 0.20346 1.5479 0.32716 s0.95866 0.25391 1.3818 0.39063 l0 3.1055 z"/></g>
			</g>
		</svg>
	